# xmcd
#
# Track frame offsets:
#	150
#	15851
#	38218
#	51288
#	72145
#	86870
#	100391
#	120219
#	139919
#	160532
#	183546
#	198761
#	216408
#	236796
#	254282
#	269300
#	287953
#	301614
#
# Disc length: 4274 seconds
#
# Revision: 4
# Processed by: cddbd v1.4PL0 Copyright (c) Steve Scherf et al.
# Submitted via: CDmax 1.8
#
DISCID=fa10b012
DTITLE=Doe Maar - Klaar
DYEAR=1900
DGENRE=Pop
TTITLE0=Alles Doet 't Nog
TTITLE1=Aan De Bewoners Van Dit Pand
TTITLE2=Watje
TTITLE3=Een Droom
TTITLE4=Oorlog
TTITLE5=Hetzelfde Meisje
TTITLE6=Overspel
TTITLE7=Leven Met Een Zeven
TTITLE8=Tijd
TTITLE9=Het Verschikkelijke Jaar
TTITLE10=Het Beste
TTITLE11=De Kater
TTITLE12=Als Niet Als
TTITLE13=Bij Elkaar
TTITLE14=Niet Nodig
TTITLE15=Dansmuziek
TTITLE16=Silhouet
TTITLE17=Klaar
EXTD=
EXTT0=
EXTT1=
EXTT2=
EXTT3=
EXTT4=
EXTT5=
EXTT6=
EXTT7=
EXTT8=
EXTT9=
EXTT10=
EXTT11=
EXTT12=
EXTT13=
EXTT14=
EXTT15=
EXTT16=
EXTT17=
PLAYORDER=
